<?xml version="1.0" encoding="utf-8"?>
<!DOCTYPE svg PUBLIC "-//W3C//DTD SVG 1.1//EN" "http://www.w3.org/Graphics/SVG/1.1/DTD/svg11.dtd">
<svg version="1.1" xmlns="http://www.w3.org/2000/svg" xmlns:xlink="http://www.w3.org/1999/xlink" width="32" height="32" viewBox="0 0 32 32">
<path fill="#fff" d="m9.078,28.656l-5.156,0l0,-16.625l5.156,0l0,16.625zm19.469,-9.734l0,9.734l-5.125,0l0,-9q0,-1.688 -0.703,-2.625q-0.719,-0.938 -1.938,-0.953q-2.25,0 -2.984,1.875q-0.25,0.641 -0.25,1.406l0,9.297l-5.109,0l0,-16.625l4.906,0l0,2.344q1.781,-2.766 4.953,-2.766q3.172,-0.016 4.703,1.734t1.547,5.578l0,0.001zm-21.828,-15.078q1,0 1.875,0.844t0.859,2.063q0.016,1.219 -0.859,2.063t-1.875,0.859q-1,0 -1.688,-0.391t-1.078,-1.063q-0.391,-0.688 -0.391,-1.469t0.391,-1.453t1.078,-1.063t1.688,-0.391l0,0.001z"/>
</svg>
