<?xml version="1.0" encoding="utf-8"?>
<!DOCTYPE svg PUBLIC "-//W3C//DTD SVG 1.1//EN" "http://www.w3.org/Graphics/SVG/1.1/DTD/svg11.dtd">
<svg version="1.1" xmlns="http://www.w3.org/2000/svg" xmlns:xlink="http://www.w3.org/1999/xlink" width="32" height="32" viewBox="0 0 32 32">
<path fill="#fff" d="m28.484,11.391q-0.016,5.703 -3.703,7.828q-1.156,0.656 -2.328,1q-1.156,0.266 -2.531,0.438q1.281,1.156 1.281,3.469l0,3.266q-0.031,1.203 -0.031,1.734q0.016,0.531 0.328,0.813t0.922,0.188q-2.844,0.953 -5.922,0.953t-5.922,-0.953q0.609,0.094 0.922,-0.188t0.328,-0.75q0,-2.469 -0.031,-3.484q-2.906,0.578 -4.469,-0.297q-1.141,-0.641 -1.672,-1.578l-0.156,-0.328q-0.313,-0.875 -0.844,-1.594t-0.906,-0.969l-0.328,-0.172q-1.328,-0.953 -0.25,-1.109l0.391,-0.031q0.781,0.094 1.5,0.531t1.063,0.938l0.297,0.469q0.484,0.828 1.234,1.344q1.391,0.953 2.5,0.734q1.094,-0.219 1.719,-0.5q0.281,-1.719 1.203,-2.484q-2.703,-0.25 -4.797,-1.391q-1.203,-0.672 -1.969,-1.656q-0.75,-0.984 -1.25,-2.594t-0.5,-3.625q0,-2.953 1.938,-5q-0.875,-2.25 0.172,-4.984l0.219,-0.078q1.234,0.016 2.625,0.672q1.375,0.656 2.313,1.344q2.375,-0.625 4.688,-0.625t4.688,0.625q1.672,-1.094 2.922,-1.578t1.719,-0.438l0.516,0.078q1.063,2.734 0.188,4.984q1.938,2.156 1.938,5l-0.005,-0.002z"/>
</svg>
